<svg xmlns="http://www.w3.org/2000/svg" width="1200" height="760" viewBox="0 0 1200 760" role="img" aria-labelledby="title desc">
  <title id="title">Win World Cup 2026 logo variation A</title>
  <desc id="desc">Independent football prediction logo with an orbiting ball, generic winner cup, and Win World Cup 2026 wordmark.</desc>
  <rect width="1200" height="760" fill="#fffdf5"/>
  <g transform="translate(600 268)">
    <circle r="160" fill="#f3fae6" stroke="#139b4b" stroke-width="18"/>
    <path d="M-142 12c34-72 93-112 177-120" fill="none" stroke="#0b7f3a" stroke-width="20" stroke-linecap="round"/>
    <path d="M114-88c43 48 58 109 35 183" fill="none" stroke="#0b7f3a" stroke-width="20" stroke-linecap="round"/>
    <path d="M-30-96l38 18 40-14-18 42 24 34-45-3-27 35-10-43-42-15 39-23z" fill="#0b7f3a"/>
    <path d="M-96-12l39 13 32-25-2 42 34 24-41 12-13 40-24-34-43 1 25-34z" fill="#0b7f3a"/>
    <path d="M74 4l44 6 25-36 7 43 42 14-38 21v44l-33-30-42 12 18-40z" fill="#0b7f3a"/>
    <g transform="translate(0 42)">
      <path d="M-62-16h124v34c0 47-29 84-62 84S-62 65-62 18z" fill="#d6a63f" stroke="#9f730f" stroke-width="8"/>
      <path d="M-96-10h34v28c0 22-15 36-34 39z" fill="none" stroke="#d6a63f" stroke-width="13" stroke-linecap="round"/>
      <path d="M62-10h34v28c0 22 15 36 34 39z" fill="none" stroke="#d6a63f" stroke-width="13" stroke-linecap="round"/>
      <path d="M-28 122h56v36h54v24h-164v-24h54z" fill="#d6a63f"/>
      <path d="M0 11l13 25 28 4-20 20 5 28L0 74l-25 14 5-28-20-20 28-4z" fill="#fffdf5"/>
    </g>
  </g>
  <g text-anchor="middle" font-family="Inter, Arial, sans-serif">
    <text x="600" y="548" fill="#139b4b" font-size="112" font-weight="900" letter-spacing="0">Win</text>
    <text x="600" y="628" fill="#102238" font-size="70" font-weight="900" letter-spacing="6">WORLD CUP</text>
    <text x="600" y="695" fill="#d6a63f" font-size="64" font-weight="900" letter-spacing="18">2026</text>
    <text x="600" y="735" fill="#102238" font-size="28" font-weight="700" letter-spacing="6">winworldcup2026.com</text>
  </g>
</svg>
