<svg xmlns="http://www.w3.org/2000/svg" width="1200" height="760" viewBox="0 0 1200 760" role="img" aria-labelledby="title desc">
  <title id="title">Win World Cup 2026 logo variation B</title>
  <desc id="desc">Independent football prediction logo with a fast football, winner spark, and Win World Cup 2026 wordmark.</desc>
  <rect width="1200" height="760" fill="#fbfff7"/>
  <g transform="translate(600 260)">
    <path d="M-312 24h250" stroke="#102238" stroke-width="18" stroke-linecap="round"/>
    <path d="M-286-24h238" stroke="#139b4b" stroke-width="18" stroke-linecap="round"/>
    <path d="M-240-70h196" stroke="#d6a63f" stroke-width="18" stroke-linecap="round"/>
    <path d="M-174 72h178" stroke="#139b4b" stroke-width="18" stroke-linecap="round"/>
    <path d="M-22-122c96-84 246-54 306 54" fill="none" stroke="#139b4b" stroke-width="17" stroke-linecap="round"/>
    <path d="M278-16c-24 130-152 211-279 169" fill="none" stroke="#102238" stroke-width="17" stroke-linecap="round"/>
    <g transform="translate(142 5)">
      <circle r="108" fill="#fffdf5" stroke="#102238" stroke-width="12"/>
      <path d="M0-54l50 36-19 59h-62l-19-59z" fill="#102238"/>
      <path d="M0-54v-48M50-18l47-15M31 41l30 42M-31 41l-30 42M-50-18l-47-15" stroke="#102238" stroke-width="9" stroke-linecap="round"/>
      <path d="M-31 41h62M50-18L31 41M-50-18l19 59M0-54l-50 36M0-54l50 36" stroke="#102238" stroke-width="7" stroke-linecap="round"/>
    </g>
    <path d="M324-132l19 48 48 19-48 19-19 48-19-48-48-19 48-19z" fill="#d6a63f"/>
  </g>
  <g text-anchor="middle" font-family="Inter, Arial, sans-serif">
    <text x="600" y="536" fill="#139b4b" font-size="118" font-weight="950" letter-spacing="-2">WIN</text>
    <text x="600" y="622" fill="#102238" font-size="72" font-weight="900" letter-spacing="5">WORLD CUP</text>
    <text x="600" y="696" fill="#139b4b" font-size="66" font-weight="900" letter-spacing="20">2026</text>
    <text x="600" y="735" fill="#102238" font-size="28" font-weight="700" letter-spacing="6">winworldcup2026.com</text>
  </g>
</svg>
