<svg xmlns="http://www.w3.org/2000/svg" viewBox="0 0 150 150">
<!-- SVG created with Arrow, by QuiverAI (https://quiver.ai) -->
  <style type="text/css">.cls-0 {fill:#0D5E36;}
.cls-1 {fill:#061027;}
.cls-2 {fill:#C89317;}
.cls-3 {fill:#FFFFFF;}
.cls-4 {fill:#051027;}</style>
  <path class="cls-0" d="m122.3 16.2-1.7 4c2 4.2 3.6 8.9 3.6 14.8 0 14.1-10 33.6-35.6 33.6-8.4 0-15.4-2.5-22.6-8.6l-4.7 0.6c5 5.4 12.6 11.6 27.8 11.7 22.4 0 38.8-14.2 38.8-37-0.1-7.1-2.5-13.8-5.6-19.1z"/>
  <path class="cls-0" d="m60.3 19.5c3.6-5.5 11.5-15.4 29.4-15.4 5.4 0 11.4 1 17.2 3.9l4.3-0.7c-4.7-3.7-10.1-6.3-19.2-6.3-11.2-0.3-27.1 3.1-35.9 18.5h4.2z"/>
  <path class="cls-0" d="m73.2 21.9-3.2 3.4-14.5 0.8c-2.9 0.1-2.1-2.7 0-2.8 3.2-0.2 11-1.1 17.7-1.4z"/>
  <path class="cls-0" d="m49.1 23.1c2.1-0.2 2.9 2.7 0 3.3l-8 0.2c-2.9 0-1.8-3.2 0.9-3.3l7.1-0.2z"/>
  <path class="cls-0" d="m68.4 28.6-3.1 2.6c-8.9 0.5-21 1.6-30 2.3-3 0.2-2.2-2.8 0.8-2.9l10.5-0.6c2.3-0.2 1.7 1.1 0.6 1.6 2 0.2 3.7-0.2 4.7-1.3 0.3-0.3 1-0.5 1.6-0.5l14.9-1.2z"/>
  <path class="cls-0" d="m56 35.2-32.4 2.7c-2.1 0.2-3.5 3.1-0.9 3.1l31.9-3.3c1.3-0.2-0.1-0.7-1.2-0.7h-7.8v-0.2c2.5-0.4 5.3-0.8 7.5-0.8 3.5-0.1 5.5 0 7.1-1l-4.2 0.2zm-18.5 2.5c0.2-0.2 3.3-0.4 5.6-0.4h8.1v0.1l-12.1 0.4c-1.4 0.2-1.5 0.5-1.4 0.4-0.2 0-0.4 0-0.2-0.5z"/>
  <path class="cls-2" d="m68.9 39.3-3.9 2.2 3.9-2 0.3 2-31.5 3.5c-2.6 0.4-2.3-2.4 0.4-2.6l11-1.4c1.6-0.2 1.9 0.3 0.9 0.5 0.6 0.4 2.7 0.3 3.9-0.1l0.3-0.3 14.7-1.8z"/>
  <path class="cls-2" d="m117.2 1.3c-0.9 6.3-1.6 7.6-4.1 8.3-1.7 0.6-6.7 1.2-6.7 1.2 7.8 1.1 9.7 0.9 10.8 8.3l0.2 2.7c0.8-8.9 2.3-9.4 9.9-10.9-6.9-1-9.1-1.2-10-9.6h-0.1z"/>
  <path class="cls-3" d="m96.1 14.3c-11.5 0-23.5 8.5-25.7 21.8-1.1 7 2.7 21.1 18.5 23.6 18.1 0.4 28.8-8.6 28.8-24.4-0.8-10.9-9.3-21-21.6-21z"/>
  <path class="cls-4" d="m95.8 13.5c-11.1 0-22.2 7.8-25.8 20.1l-10.7 3.9-0.1 0.2 10.2-1.4-0.3 3.2c0 1.9 0.2 3.6 0.4 4.5l-23.1 3.6c-2.9 0.5-3.3 4 0 3.8l9.8-1.4c1.2-0.4 1.4-1.6 2.5-1.8 0.5 0.2 0.2 1.4 1.6 1.2l10.3-1.7c0.4 0.8 0.8 1.6 1.2 2.2 0.7 0.7-0.4 0.8-1.2 1.1l-13.2 2.7c-2.5 0.5-3 3.8 0.2 3.2l1.5-0.2c3-2.8 5.1-1.3 3.4 0.1l6.4-0.4c3.4 0 6.8 0.4 10 1.1 3.4 1.7 6.5 3.5 12.2 3.5 14.8 0 27.3-8.4 27.3-25.6 0-8.7-7.8-21.9-22.6-21.9zm9.5 3.4-3.6 1.8c-2.3-0.4-5.1-0.8-9.9-0.5l-2.2-2.1c6.3-1.7 12.6-0.9 15.7 0.9v-0.1zm-17.4-0.4h0.5l2.3 2.2-4.2 7.3c-2.6 1.1-5.9 2.7-8.8 4.4l-2.6-2.5-1.4 1.2c2.5-5.4 8.9-11.1 14.2-12.6zm-8.5 38.9c-3.9-3-7.3-7.3-8.1-12.6l4.4-2.6 5.8 4.4 0.3 0.4 1.1 8.9-2.9 1.8-0.6-0.3zm1.1 0.9 3.2-1.9c2.9 0.7 5.4 1.2 10.2 1.2l1.7 3.1c-6.2 1.2-12.5-0.2-15.1-2.4zm15.9 2.3-1.9-3.2 4.7-8.5 8.8-3.7 0.2-0.1h0.2l3.9 2.5 0.8 0.2 0.3-0.1v-0.1 0.1c-3.4 6.4-9.5 11.5-17 12.9zm11.6-15.7-8.8 2.6-7.2-4.9 0.1-2.6-0.7 2.4-9.3 3.7-6-4.5 1.7-8.5c1.8-1 7.8-3.7 8.8-4.4l6.8 5.3v0.6l-0.8 4.3 1.5-4.9 9.3-3.7c3 1.8 6.3 4.7 6.8 5.4l-1.8 8.3-0.4 0.9zm2.9-9.5-7-5.7c-0.3-2.7-1-5.7-1.7-8.2l3.5-1.6 0.2-0.3c5 2.2 9.8 7.4 10.7 14.3l-1-0.8-4.7 2.3z"/>
  <path class="cls-0" d="m22.8 77.4h9.2l3.3 14.8 6.7-9.1 1.4 8.6-6.4 9.7h-8.8l-5.4-24z"/>
  <path class="cls-0" d="m45.5 77.4-1.1 1.3 4.4 22.7h9.7l17.4-24h-8.6l-11.5 15.8-3-15.8h-7.3z"/>
  <path class="cls-0" d="m80.2 77.3h8.7l-8.2 24h-8.1l7.6-24z"/>
  <path class="cls-0" d="m94.7 77.3-8.3 23.9h8l5.1-15.1 12.3 15.1h7.7l0.7-1.8-17.9-22.1h-7.6z"/>
  <path class="cls-0" d="m120 77.3-3.7 11.3 5.1 7 7.5-18.3h-8.9z"/>
  <path class="cls-4" d="m15.2 105.9h3.2l0.8 10 4.3-10h2.9l0.8 9.9 4.2-9.9h3.7l-6.7 13.7h-3.5l-0.9-8.3-4 8.3h-3.4l-1.4-13.7z"/>
  <path class="cls-4" d="m34.2 114.9c0-4.1 2.5-9 8.4-9 3 0 5.8 1.3 5.8 5.3 0 4.1-2.5 8.7-8.8 8.7-3 0.1-5.4-1.6-5.4-5zm10.9-2.7c0-1.8-0.9-3.4-3-3.4-3.4 0-4.7 3.2-4.7 5.7 0 1.9 1.1 3 3 3 3 0 4.7-2.5 4.7-5.3z"/>
  <path class="cls-4" d="m52.1 105.9h6.5c2 0 3.9 1.1 3.9 3.7 0 2.4-1.4 4.6-3.4 5.5l2.2 4.4h-3.4l-2-4.1-2.2-0.1-0.9 4.2h-3.5l2.8-13.6zm4.6 7.1c1.7 0 2.5-1.1 2.5-2.4 0-1.1-0.8-1.9-2.1-1.9h-2.2l-0.8 4.2 2.6 0.1z"/>
  <path class="cls-4" d="m65.7 105.9h3.2l-2.1 11.3h6l-0.5 2.3h-9.1l2.5-13.6z"/>
  <path class="cls-4" d="m76.9 105.9h6.2c3 0 5 1.6 5 5.3 0 3.1-1.6 8.3-8.5 8.3h-5.2l2.5-13.6zm2.7 11.3c3.8 0 4.9-2.6 4.9-5.3 0-1.5-0.8-3.2-3-3.2h-2.1l-1.6 8.5h1.8z"/>
  <path class="cls-4" d="m94.1 115.2c0-4.3 2.5-9.4 8-9.4 3.3-0.2 4.8 1.4 5.1 3.7l-2.7 1.6c-0.4-1.5-1.1-2.5-2.7-2.5-2.9 0-4.5 3-4.5 5.9 0 2.1 1.3 3 2.9 3 1.3 0 2.5-0.6 3.5-1.8l1.9 1.5c-1.4 2-4.1 2.7-6.7 2.7-2.3 0-4.8-1.3-4.8-4.7z"/>
  <path class="cls-4" d="m107.9 50.7"/>
  <path class="cls-4" d="m107.9 50.7"/>
  <path class="cls-4" d="m108 115.9"/>
  <path class="cls-4" d="m107.9 115.9"/>
  <path class="cls-4" d="m107.9 115.9"/>
  <path class="cls-4" d="m107.9 115.9"/>
  <path class="cls-4" d="m108 115.9"/>
  <path class="cls-4" d="m107.9 115.9"/>
  <path class="cls-4" d="m107.9 115.9"/>
  <path class="cls-4" d="m108 115.9"/>
  <path class="cls-4" d="m107.9 115.9"/>
  <path class="cls-4" d="m107.9 115.9"/>
  <path class="cls-4" d="m107.9 115.9"/>
  <path class="cls-4" d="m107.9 115.9"/>
  <path class="cls-4" d="m107.9 115.9"/>
  <path class="cls-4" d="m107.9 115.9"/>
  <path class="cls-4" d="m107.9 115.9"/>
  <path class="cls-4" d="m108 115.9"/>
  <path class="cls-4" d="m108 115.9"/>
  <path class="cls-4" d="m107.9 115.9"/>
  <path class="cls-4" d="m107.9 115.9"/>
  <path class="cls-4" d="m107.9 115.9"/>
  <path class="cls-4" d="m107.9 115.9"/>
  <path class="cls-4" d="m107.9 115.9"/>
  <path class="cls-4" d="m107.9 115.9"/>
  <path class="cls-4" d="m107.9 115.9"/>
  <path class="cls-4" d="m108 115.9"/>
  <path class="cls-4" d="m107.9 115.9"/>
  <path class="cls-4" d="m108 115.9"/>
  <path class="cls-4" d="m107.9 115.9"/>
  <path class="cls-4" d="m107.9 115.9"/>
  <path class="cls-4" d="m107.9 115.9"/>
  <path class="cls-4" d="m107.9 115.9"/>
  <path class="cls-4" d="m107.9 115.9"/>
  <path class="cls-4" d="m107.9 115.9"/>
  <path class="cls-4" d="m107.9 115.9"/>
  <path class="cls-4" d="m108 115.9"/>
  <path class="cls-4" d="m107.9 115.9"/>
  <path class="cls-4" d="m108.6 105.9h4.8l-1.6 8.4c-0.4 2.6 1.3 3.2 2.3 3.2 1.8 0 3-0.9 3.1-2.9l1.4-8.7h3.1l-1.5 8.7c-0.7 3.8-3.3 5-6.8 5-2.5 0-6-0.8-5.3-4.6l1.6-9.1h-1.1z"/>
  <path class="cls-4" d="m124.5 105.9h7c1.4 0 3.5 1 3.5 3.6 0 2.5-1.6 5.9-6.4 5.9h-2.6l-0.9 4.1h-3.6l3-13.6zm4.1 7.1c2 0 3.1-1 3.1-2.6 0-1-0.7-1.7-1.8-1.7h-2.5l-0.9 4.3h2.1z"/>
  <path class="cls-0" d="m45.4 133c4.5-2.5 7.7-4.5 7.7-6.4 0-1-0.7-1.4-1.6-1.4s-1.5 0.6-2.1 1.4l-2.3-0.4c1-1.8 2.5-3 4.9-3s3.6 1.2 3.6 2.4c0 2.3-2 3.6-6 6.8h4.9l-0.4 2h-9l0.3-1.4z"/>
  <path class="cls-0" d="m61.2 130.5c0-2.8 1.5-7.3 6.2-7.3 2 0 3.8 1.1 3.8 3.8 0 3.1-1.8 7.4-6.1 7.4-2.4 0-3.9-1-3.9-3.9zm7.5-3c0-1.5-0.8-2.4-2-2.4-2.6 0-3.2 3.3-3.2 4.9 0 1.5 0.9 2.4 2.1 2.4 2.3 0 3.3-2.8 3.1-4.9z"/>
  <path class="cls-0" d="m76.4 133.1c4.5-2.6 7-4.6 7-6.4 0-1.1-0.7-1.7-1.6-1.7-0.8 0-1.4 0.5-2.2 1.4l-1.8-0.3c0.8-2 2.6-3 4.6-3s3.3 0.9 3.3 2.5c0 2.8-2.3 3.8-5.7 6.8h4.5l-0.3 1.9h-8l0.2-1.2z"/>
  <path class="cls-0" d="m91.5 131.1c0-2 1.2-3.1 5.3-7.6h2.8l-3.7 3.7c0.5-0.1 0.7-0.1 1-0.1 2 0 3.1 1.3 3.1 2.9 0 2-1.9 4.2-4.9 4.2-2.2 0.2-3.6-1.1-3.6-3.1zm6.4-0.7c0-0.8-0.7-1.7-1.8-1.7-1.4 0-2.4 1-2.4 1.9s0.7 1.8 1.9 1.8c1.3 0 2.3-1 2.3-2z"/>
  <path class="cls-0" d="m24.7 128h14.9v1l-14.9-0.1v-0.9z"/>
  <path class="cls-0" d="m107.6 127.9h15.1v1h-15.1v-1z"/>
  <path class="cls-4" d="m31.2 143.9h0.7l0.7 2.8 1-2.8h0.8l1 2.8 0.8-2.8h0.8l-1 3.6h-0.9l-1-2.9-1 2.9h-0.9l-1-3.6z"/>
  <path class="cls-4" d="m38.4 142.5h0.7v0.7h-0.8v-0.7h0.1zm0 1.4h0.7v3.6h-0.7v-3.6z"/>
  <path class="cls-4" d="m40.9 144h0.6v0.4c0.4-0.4 0.7-0.5 1.2-0.5 0.9 0 1.4 0.5 1.4 1.5v2.1h-0.6v-2.1c0-0.8-0.3-1-0.8-1-0.6 0-1.1 0.5-1.1 1.2v2h-0.7v-3.6z"/>
  <path class="cls-4" d="m45.5 143.9h0.7l0.7 2.8 1-2.8h0.8l1 2.8 0.8-2.8h0.8l-0.9 3.6h-0.9l-1-2.9-1 2.9h-0.9l-1.1-3.6z"/>
  <path class="cls-4" d="m52.7 145.8c0-1.2 0.7-2.1 1.8-2.1s1.8 0.8 1.8 1.9c0 1.3-0.7 2-1.8 2s-1.8-0.7-1.8-1.8zm2.9-0.2c0-0.9-0.4-1.3-1.1-1.3-0.6 0-1.1 0.6-1.1 1.5 0 0.8 0.5 1.3 1.1 1.3 0.7 0 1.1-0.6 1.1-1.5z"/>
  <path class="cls-4" d="m57.9 143.9h0.6v0.5c0.2-0.4 0.7-0.7 1.4-0.5v0.5c-0.8 0-1.3 0.2-1.3 1v2.1h-0.7v-3.6z"/>
  <path class="cls-4" d="m61.3 142.4h0.7v5.1h-0.7v-5.1z"/>
  <path class="cls-4" d="m63.6 145.8c0-1.2 0.8-2.1 1.6-2.1 0.4 0 0.7 0 1.1 0.3v-1.6h0.6v5.1h-0.6v-0.4c-0.4 0.4-0.7 0.5-1.1 0.5-0.8 0-1.6-0.6-1.6-1.8zm2.7 0.8v-2c-0.2-0.2-0.6-0.2-0.9-0.2-0.8 0-1.2 0.6-1.2 1.4s0.4 1.3 1.2 1.3c0.2 0 0.7-0.1 0.9-0.5z"/>
  <path class="cls-4" d="m68.6 145.8c0-1.2 0.6-2.1 1.8-2.1 0.5 0 1 0.2 1.2 0.3l-0.2 0.6c-0.3-0.2-0.7-0.3-1-0.3-0.8 0-1.2 0.6-1.2 1.3 0 1 0.4 1.5 1.2 1.5 0.2 0 0.7-0.1 1-0.2l0.2 0.5c-0.2 0.1-0.7 0.2-1.2 0.2-1.2 0-1.8-0.6-1.8-1.8z"/>
  <path class="cls-4" d="m73.1 146.4v-2.5h0.6v2.2c0 0.8 0.4 1 0.8 1 0.6 0 1.1-0.4 1.1-1v-2.2h0.6v3.6h-0.6v-0.4c-0.4 0.4-0.7 0.5-1.2 0.5-0.8 0-1.3-0.2-1.3-1.2z"/>
  <path class="cls-4" d="m77.9 143.9h0.7v0.4c0.3-0.3 0.8-0.6 1.1-0.6 0.9 0 1.4 0.8 1.4 1.9 0 1.3-0.7 2-1.5 2-0.4 0-0.7-0.1-1-0.4v1.8h-0.7v-5.1zm2.6 1.9c0-0.8-0.3-1.5-0.9-1.5-0.4 0-0.9 0.1-1.1 0.4v2c0.2 0.3 0.6 0.4 1 0.4 0.5 0 1-0.5 1-1.3z"/>
  <path class="cls-4" d="m82.6 146.7c1.3-1.1 2.6-2.1 2.6-2.8 0-0.5-0.3-0.8-1-0.8-0.3 0-0.7 0.3-1.1 0.5l-0.5-0.5c0.5-0.4 1-0.6 1.6-0.6 0.9 0 1.7 0.5 1.7 1.4 0 0.8-0.9 1.7-2.2 2.7h2.2v0.9h-3.3v-0.8z"/>
  <path class="cls-4" d="m87.6 145.1c0-1.5 0.8-2.6 2-2.6 1.3 0 2 0.9 2 2.5s-0.7 2.6-2 2.6c-1.2 0-2-0.9-2-2.5zm3.3 0c0-1.1-0.3-2-1.3-2-0.9 0-1.2 0.9-1.2 1.9 0 1.1 0.5 2 1.2 2 1 0 1.3-0.8 1.3-1.9z"/>
  <path class="cls-4" d="m93.2 146.7c1.3-1.1 2.4-2.1 2.4-2.8 0-0.5-0.2-0.8-0.9-0.8-0.3 0-0.7 0.3-1.1 0.5l-0.4-0.5c0.4-0.4 0.9-0.6 1.7-0.6 0.7 0 1.5 0.6 1.5 1.4s-0.8 1.7-2.2 2.7h2.2v0.9h-3.2v-0.8z"/>
  <path class="cls-4" d="m97.9 145.6c0-1.5 1-3.1 2.7-3.1l0.5 0.1v0.5h-0.5c-1 0-1.7 0.6-2 1.6 0.4-0.1 0.8-0.3 1.3-0.3 0.8 0 1.6 0.6 1.6 1.6s-0.9 1.6-1.8 1.6c-1.1 0-1.8-0.7-1.8-2zm2.8 0.4c0-0.6-0.3-1-1.1-1-0.4 0-0.7 0.1-1.1 0.4v0.6c0 0.6 0.5 1 1.1 1s1.1-0.4 1.1-1z"/>
  <path class="cls-4" d="m103 146.6h0.7v0.9h-0.7v-0.9z"/>
  <path class="cls-4" d="m105.1 145.8c0-1.2 0.5-2.1 1.8-2.1 0.5 0 1 0.2 1.5 0.4l-0.4 0.5c-0.4-0.2-0.6-0.3-1.1-0.3s-1 0.6-1 1.3c0 1 0.5 1.5 1.1 1.5 0.4 0 0.6-0.1 1-0.2l0.4 0.3c-0.3 0.3-0.8 0.4-1.4 0.4-1.1 0-1.9-0.7-1.9-1.8z"/>
  <path class="cls-4" d="m109.6 145.8c0-1.2 0.8-2.1 2-2.1 1 0 1.8 0.8 1.8 1.9 0 1.3-0.7 2-1.8 2-1 0-2-0.7-2-1.8zm3.3-0.2c0-0.9-0.5-1.3-1.1-1.3-0.8 0-1.3 0.6-1.3 1.5 0 0.8 0.5 1.3 1.3 1.3 0.6 0 1.1-0.6 1.1-1.5z"/>
  <path class="cls-4" d="m115.1 143.9h0.5v0.4c0.5-0.3 1-0.6 1.3-0.6 0.5 0 0.7 0.3 1 0.6 0.5-0.3 0.8-0.6 1.3-0.6 0.7 0 1.2 0.4 1.2 1.4v2.4h-0.8v-2.1c0-0.8-0.2-1-0.7-1-0.3 0-0.8 0.2-0.9 0.7v2.4h-0.6v-2.1c0-0.8-0.3-1.1-0.8-1.1-0.2 0-0.7 0.3-0.9 0.6v2.6h-0.6v-3.6z"/>
  <path class="cls-4" d="m39.6 48.8c2.5-0.3 3.1 2.7 0.5 3.6l-8.6 1.3c-2.8 0.3-2.6-3.1-0.1-3.6l8.2-1.3z"/>
  <path class="cls-4" d="m51.4 54.7c2.3-0.3 3 1.9 0.5 3l-8.3 1.5c-2.2 0.2-2.4-2.5-0.2-3l8-1.5z"/>
</svg>